<svg width="13" height="12" viewBox="0 0 13 12" fill="none" xmlns="http://www.w3.org/2000/svg">
<path fill-rule="evenodd" clip-rule="evenodd" d="M6.43962 2.55541L6.7995 2.77476L6.00977 4.07043L5.22003 2.77476C4.84661 2.1621 4.19578 1.79682 3.4713 1.79682C2.34047 1.79682 1.43284 2.70159 1.43284 3.79682V3.79854C1.431 4.3354 1.64058 4.85348 2.01982 5.24344C2.88248 6.13045 4.93659 8.35481 6.00977 9.52059C7.08295 8.35481 9.13706 6.13044 9.99971 5.24343L10.3007 5.53616M10.3626 5.58745C10.8296 5.10468 11.0867 4.46907 11.0867 3.79682C11.0867 2.41828 9.94798 1.29682 8.54823 1.29682C7.65046 1.29682 6.8373 1.75203 6.37255 2.51453L6.00977 3.10974L5.64698 2.51453C5.18223 1.75203 4.36907 1.29682 3.4713 1.29682C2.07155 1.29682 0.932843 2.41828 0.932843 3.79682C0.93055 4.46342 1.19004 5.10499 1.6569 5.58742C1.65691 5.58743 1.65689 5.5874 1.6569 5.58742C1.65838 5.58894 1.6599 5.59051 1.66138 5.59203C2.52634 6.48141 4.6046 8.73231 5.67007 9.88983C5.77594 10.0049 5.87181 10.1091 5.9555 10.2001C5.9742 10.2204 5.9923 10.2401 6.00977 10.2591C6.02723 10.2401 6.04533 10.2204 6.06403 10.2001C6.14772 10.1091 6.24359 10.0049 6.34946 9.88983C7.41493 8.73231 9.49319 6.48141 10.3582 5.59203C10.3596 5.59052 10.3611 5.58897 10.3626 5.58745C10.3626 5.58746 10.3626 5.58744 10.3626 5.58745ZM6.34924 10.5106C6.33897 10.5217 6.32891 10.5327 6.31905 10.5434C6.12437 10.7552 6.00977 10.8802 6.00977 10.8802C6.00977 10.8802 5.89516 10.7552 5.70048 10.5434C5.69062 10.5327 5.68056 10.5217 5.67029 10.5106C4.77041 9.53171 2.32681 6.87906 1.36039 5.88476C1.36039 5.88476 1.36039 5.88476 1.36039 5.88476C1.3589 5.88322 1.35741 5.88169 1.35592 5.88016C0.831516 5.34099 0.509766 4.60224 0.509766 3.79682C0.509766 3.79634 0.509766 3.79585 0.509766 3.79537C0.510564 2.1852 1.83618 0.880157 3.4713 0.880157C4.35707 0.880157 5.15007 1.26437 5.69211 1.87167C5.79114 1.98263 5.8818 2.10104 5.96312 2.22592C5.9768 2.24694 5.99022 2.26813 6.00338 2.28951C6.00338 2.28951 6.00337 2.28951 6.00338 2.28951C6.00454 2.2914 6.0057 2.29329 6.00686 2.29518C6.00783 2.29677 6.0088 2.29836 6.00977 2.29995C6.01073 2.29836 6.01171 2.29677 6.01268 2.29518C6.01383 2.29329 6.01499 2.2914 6.01615 2.28952C6.01615 2.28952 6.01615 2.28952 6.01615 2.28952C6.0293 2.26814 6.04273 2.24694 6.05641 2.22592C6.13773 2.10104 6.22839 1.98263 6.32743 1.87167C6.86946 1.26437 7.66246 0.880157 8.54823 0.880157C10.1838 0.880157 11.5098 2.18599 11.5098 3.79682C11.5098 4.60224 11.1878 5.34099 10.6636 5.88016C10.6621 5.88166 10.6607 5.88317 10.6592 5.88468C10.6592 5.88471 10.6592 5.88466 10.6592 5.88468C9.69279 6.87898 7.24912 9.53171 6.34924 10.5106ZM6.06851 10.934L6.37827 11.2181L6.52912 11.0538C6.62606 10.9483 6.76588 10.7961 6.9374 10.6097C7.28045 10.2368 7.75022 9.72701 8.25714 9.17897C9.27291 8.08079 10.4318 6.83575 11.0221 6.22873C11.6336 5.59976 12.0098 4.73726 12.0098 3.79682C12.0098 1.90268 10.4528 0.380157 8.54823 0.380157C7.54431 0.380157 6.6414 0.80349 6.00977 1.47821C5.37813 0.80349 4.47522 0.380157 3.4713 0.380157C1.56677 0.380157 0.00976562 1.90268 0.00976562 3.79682C0.00976562 4.73715 0.38564 5.59967 0.99745 6.22873M6.06851 10.934L6.37827 11.2181L6.00977 11.6198L5.6413 11.2181L5.49041 11.0538C5.39348 10.9483 5.25365 10.7961 5.08213 10.6097C4.73908 10.2368 4.26931 9.72701 3.7624 9.17897C2.74665 8.08081 1.58772 6.83576 0.99745 6.22873M10.3007 5.53616L9.99971 5.24343C9.99974 5.2434 9.99968 5.24346 9.99971 5.24343C10.3787 4.85349 10.5867 4.34107 10.5867 3.79682C10.5867 2.70159 9.67906 1.79682 8.54823 1.79682C7.82375 1.79682 7.17292 2.1621 6.7995 2.77476L6.43962 2.55541" fill="black"/>
</svg>
