<svg width="12" height="12" viewBox="0 0 12 12" fill="none" xmlns="http://www.w3.org/2000/svg">
<path d="M0.55407 5.48509L0.554055 5.48515L0.557491 5.48593L5.30898 6.55775L6.38157 11.3029C6.38163 11.3032 6.38168 11.3034 6.38173 11.3037C6.45939 11.669 6.95939 11.7059 7.09439 11.3621L11.4413 0.928831L11.4414 0.92889L11.4433 0.923684C11.553 0.613163 11.2594 0.294274 10.9429 0.431728L0.49911 4.76008L0.537152 4.85257L0.498865 4.76018L0.499022 4.76012C0.17206 4.8947 0.191505 5.38978 0.55407 5.48509ZM5.50192 5.81463L1.88324 5.00702L9.46708 1.8535L5.50192 5.81463ZM6.02459 6.35071L9.99115 2.38818L6.84614 9.967L6.02459 6.35071Z" fill="black" stroke="black" stroke-width="0.2"/>
</svg>
