<svg width="23" height="22" viewBox="0 0 23 22" fill="none" xmlns="http://www.w3.org/2000/svg">
<mask id="path-1-outside-1_162_1142" maskUnits="userSpaceOnUse" x="0" y="0" width="23" height="22" fill="black">
<rect fill="white" width="23" height="22"/>
<path d="M19.3749 20.8552H13.25V15.1678H9.75004V20.8552H3.62513V8.80936C3.62513 8.69333 3.67122 8.58205 3.75327 8.5C3.83531 8.41796 3.94659 8.37187 4.06262 8.37187C4.17865 8.37187 4.28993 8.41796 4.37198 8.5C4.45402 8.58205 4.50012 8.69333 4.50012 8.80936L4.50012 19.9802H8.87505V14.2928H14.125V19.9802H18.4999L18.4998 8.80936C18.4998 8.69333 18.5459 8.58205 18.628 8.5C18.71 8.41796 18.8213 8.37187 18.9373 8.37187C19.0534 8.37187 19.1647 8.41796 19.2467 8.5C19.3287 8.58205 19.3748 8.69333 19.3748 8.80936L19.3749 20.8552Z"/>
<path d="M21.5624 11.6678C21.4498 11.668 21.3415 11.6246 21.2601 11.5466L11.5001 2.21098L1.74006 11.5466C1.65623 11.6269 1.54396 11.6705 1.42794 11.668C1.31193 11.6654 1.20168 11.6169 1.12144 11.5331C1.04121 11.4493 0.997562 11.337 1.00011 11.221C1.00265 11.105 1.05117 10.9947 1.13501 10.9145L11.5001 1L21.8647 10.914C21.9279 10.9744 21.9716 11.0523 21.9901 11.1377C22.0086 11.2231 22.0011 11.3121 21.9686 11.3932C21.936 11.4743 21.88 11.5438 21.8076 11.5927C21.7352 11.6417 21.6498 11.6678 21.5624 11.6678Z"/>
</mask>
<path d="M19.3749 20.8552H13.25V15.1678H9.75004V20.8552H3.62513V8.80936C3.62513 8.69333 3.67122 8.58205 3.75327 8.5C3.83531 8.41796 3.94659 8.37187 4.06262 8.37187C4.17865 8.37187 4.28993 8.41796 4.37198 8.5C4.45402 8.58205 4.50012 8.69333 4.50012 8.80936L4.50012 19.9802H8.87505V14.2928H14.125V19.9802H18.4999L18.4998 8.80936C18.4998 8.69333 18.5459 8.58205 18.628 8.5C18.71 8.41796 18.8213 8.37187 18.9373 8.37187C19.0534 8.37187 19.1647 8.41796 19.2467 8.5C19.3287 8.58205 19.3748 8.69333 19.3748 8.80936L19.3749 20.8552Z" fill="#0126A8" fill-opacity="0.88"/>
<path d="M21.5624 11.6678C21.4498 11.668 21.3415 11.6246 21.2601 11.5466L11.5001 2.21098L1.74006 11.5466C1.65623 11.6269 1.54396 11.6705 1.42794 11.668C1.31193 11.6654 1.20168 11.6169 1.12144 11.5331C1.04121 11.4493 0.997562 11.337 1.00011 11.221C1.00265 11.105 1.05117 10.9947 1.13501 10.9145L11.5001 1L21.8647 10.914C21.9279 10.9744 21.9716 11.0523 21.9901 11.1377C22.0086 11.2231 22.0011 11.3121 21.9686 11.3932C21.936 11.4743 21.88 11.5438 21.8076 11.5927C21.7352 11.6417 21.6498 11.6678 21.5624 11.6678Z" fill="#0126A8" fill-opacity="0.88"/>
<path d="M19.3749 20.8552H13.25V15.1678H9.75004V20.8552H3.62513V8.80936C3.62513 8.69333 3.67122 8.58205 3.75327 8.5C3.83531 8.41796 3.94659 8.37187 4.06262 8.37187C4.17865 8.37187 4.28993 8.41796 4.37198 8.5C4.45402 8.58205 4.50012 8.69333 4.50012 8.80936L4.50012 19.9802H8.87505V14.2928H14.125V19.9802H18.4999L18.4998 8.80936C18.4998 8.69333 18.5459 8.58205 18.628 8.5C18.71 8.41796 18.8213 8.37187 18.9373 8.37187C19.0534 8.37187 19.1647 8.41796 19.2467 8.5C19.3287 8.58205 19.3748 8.69333 19.3748 8.80936L19.3749 20.8552Z" stroke="#0126A8" stroke-width="0.6" mask="url(#path-1-outside-1_162_1142)"/>
<path d="M21.5624 11.6678C21.4498 11.668 21.3415 11.6246 21.2601 11.5466L11.5001 2.21098L1.74006 11.5466C1.65623 11.6269 1.54396 11.6705 1.42794 11.668C1.31193 11.6654 1.20168 11.6169 1.12144 11.5331C1.04121 11.4493 0.997562 11.337 1.00011 11.221C1.00265 11.105 1.05117 10.9947 1.13501 10.9145L11.5001 1L21.8647 10.914C21.9279 10.9744 21.9716 11.0523 21.9901 11.1377C22.0086 11.2231 22.0011 11.3121 21.9686 11.3932C21.936 11.4743 21.88 11.5438 21.8076 11.5927C21.7352 11.6417 21.6498 11.6678 21.5624 11.6678Z" stroke="#0126A8" stroke-width="0.6" mask="url(#path-1-outside-1_162_1142)"/>
</svg>
