<svg width="25" height="25" viewBox="0 0 25 25" fill="none" xmlns="http://www.w3.org/2000/svg">
<path d="M8.59376 23.0609C8.47228 23.0606 8.3525 23.0323 8.24376 22.9781L1.99376 19.8531C1.86416 19.7882 1.75518 19.6885 1.67902 19.5651C1.60286 19.4418 1.56252 19.2997 1.56251 19.1547V5.09219C1.56178 4.95885 1.59533 4.82757 1.65993 4.71092C1.72453 4.59428 1.81802 4.4962 1.93143 4.42608C2.04485 4.35596 2.17437 4.31616 2.30759 4.3105C2.44081 4.30484 2.57325 4.33351 2.6922 4.39375L8.9422 7.51875C9.20783 7.65 9.37501 7.92031 9.37501 8.21719V22.2797C9.37378 22.4865 9.29108 22.6845 9.14483 22.8308C8.99858 22.977 8.80058 23.0597 8.59376 23.0609ZM3.12501 18.6719L7.81251 21.0156V8.69844L3.12501 6.35469V18.6719ZM22.6563 23.0609C22.5348 23.0606 22.415 23.0323 22.3063 22.9781L16.0563 19.8531C15.9267 19.7882 15.8177 19.6885 15.7415 19.5651C15.6654 19.4418 15.625 19.2997 15.625 19.1547V5.09219C15.6243 4.95885 15.6578 4.82757 15.7224 4.71092C15.787 4.59428 15.8805 4.4962 15.9939 4.42608C16.1073 4.35596 16.2369 4.31616 16.3701 4.3105C16.5033 4.30484 16.6357 4.33351 16.7547 4.39375L23.0047 7.51875C23.2703 7.65 23.4375 7.92031 23.4375 8.21719V22.2797C23.4363 22.4865 23.3536 22.6845 23.2073 22.8308C23.0611 22.977 22.8631 23.0597 22.6563 23.0609ZM17.1875 18.6719L21.875 21.0156V8.69844L17.1875 6.35469V18.6719Z" fill="#0126A8"/>
<path d="M12.5 12.9313C12.2928 12.9313 12.0939 12.8493 11.9469 12.7031L9.18598 9.94063C9.04367 9.79329 8.96492 9.59594 8.9667 9.3911C8.96848 9.18626 9.05065 8.99031 9.1955 8.84546C9.34035 8.70061 9.53629 8.61845 9.74114 8.61667C9.94598 8.61489 10.1433 8.69363 10.2907 8.83594L12.5 11.0453L14.7094 8.83594C14.8568 8.69363 15.0541 8.61489 15.259 8.61667C15.4638 8.61845 15.6597 8.70061 15.8046 8.84546C15.9494 8.99031 16.0316 9.18626 16.0334 9.3911C16.0352 9.59594 15.9564 9.79329 15.8141 9.94063L13.0532 12.7031C12.9806 12.7758 12.8943 12.8333 12.7994 12.8725C12.7045 12.9116 12.6027 12.9316 12.5 12.9313Z" fill="#0126A8"/>
<path d="M15.2625 10.1703C15.1081 10.1703 14.9572 10.1245 14.8288 10.0388C14.7004 9.95301 14.6003 9.83113 14.5411 9.68853C14.4819 9.54592 14.4663 9.38898 14.4963 9.23751C14.5262 9.08605 14.6004 8.94685 14.7094 8.83751C15.3 8.24532 15.625 7.46094 15.625 6.62657C15.625 5.79219 15.3 5.00782 14.7094 4.41719C13.5281 3.23594 11.4719 3.23594 10.2906 4.41719C9.70002 5.00782 9.37502 5.79219 9.37502 6.62657C9.37502 7.46094 9.70002 8.24532 10.2906 8.83594C10.433 8.98329 10.5117 9.18063 10.5099 9.38548C10.5081 9.59032 10.426 9.78626 10.2811 9.93111C10.1363 10.076 9.94033 10.1581 9.73549 10.1599C9.53065 10.1617 9.3333 10.0829 9.18596 9.94063C8.74912 9.50659 8.40278 8.99016 8.16702 8.42128C7.93126 7.85239 7.81076 7.24237 7.81252 6.62657C7.81252 5.37344 8.30002 4.19844 9.18596 3.31251C10.9563 1.54219 14.0438 1.54219 15.8141 3.31251C16.7 4.19844 17.1875 5.37344 17.1875 6.62657C17.1875 7.87813 16.7 9.05626 15.8141 9.94063C15.7419 10.0134 15.6559 10.0712 15.5613 10.1106C15.4666 10.1501 15.3651 10.1703 15.2625 10.1703Z" fill="#0126A8"/>
<path d="M16.4062 7.40781C16.199 7.40781 16.0003 7.3255 15.8538 7.17899C15.7073 7.03248 15.6249 6.83376 15.6249 6.62656C15.6249 6.24063 15.5515 5.85781 15.4062 5.4875C15.3308 5.29579 15.3343 5.08202 15.416 4.89289C15.4976 4.70376 15.6509 4.55465 15.8421 4.47813L16.1156 4.36875C16.2339 4.32049 16.3624 4.30214 16.4896 4.31532C16.6167 4.3285 16.7387 4.37281 16.8446 4.44433C16.9506 4.51585 17.0373 4.61237 17.0971 4.72537C17.1569 4.83836 17.1879 4.96435 17.1874 5.09219V6.62656C17.1874 6.83376 17.1051 7.03248 16.9586 7.17899C16.8121 7.3255 16.6134 7.40781 16.4062 7.40781Z" fill="#0126A8"/>
<path d="M8.59375 23.0609C8.38668 23.0605 8.1882 22.9781 8.04178 22.8316C7.89536 22.6852 7.81291 22.4868 7.8125 22.2797V8.21718C7.81241 8.06134 7.85893 7.90903 7.94608 7.77984C8.03323 7.65064 8.15703 7.55047 8.30156 7.49218L8.59063 7.37656C8.78214 7.29975 8.99626 7.30182 9.18625 7.38232C9.37624 7.46283 9.52666 7.61522 9.60469 7.80624C9.7625 8.19218 9.99375 8.53906 10.2891 8.83593L12.5 11.0453L14.7094 8.83593C15.3 8.24531 15.625 7.46093 15.625 6.62656C15.625 6.41936 15.7073 6.22064 15.8538 6.07413C16.0003 5.92762 16.199 5.84531 16.4062 5.84531C16.6135 5.84531 16.8122 5.92762 16.9587 6.07413C17.1052 6.22064 17.1875 6.41936 17.1875 6.62656V19.1547C17.1875 19.3107 17.1407 19.4631 17.0533 19.5924C16.9658 19.7216 16.8417 19.8216 16.6969 19.8797L8.88437 23.0047C8.79197 23.0418 8.69332 23.0609 8.59375 23.0609ZM9.375 10.1297V21.125L15.625 18.6234V10.1297L13.0531 12.7031C12.9066 12.8496 12.7079 12.9319 12.5008 12.9319C12.2936 12.9319 12.0949 12.8496 11.9484 12.7031L9.375 10.1297Z" fill="#0126A8"/>
<path d="M12.5 7.32344C13.0393 7.32344 13.4766 6.88622 13.4766 6.34688C13.4766 5.80754 13.0393 5.37032 12.5 5.37032C11.9607 5.37032 11.5234 5.80754 11.5234 6.34688C11.5234 6.88622 11.9607 7.32344 12.5 7.32344Z" fill="#0126A8"/>
</svg>
