<svg width="35" height="27" viewBox="0 0 35 27" fill="none" xmlns="http://www.w3.org/2000/svg">
<path d="M8.03301 22.4419V22.5419H8.13301H9.44761H9.54761V22.4419C9.54761 18.8788 12.9247 15.868 17.3352 15.868C21.7466 15.868 25.1667 18.8795 25.1667 22.4419V22.5419H25.2667H26.5813H26.6813V22.4419C26.6813 20.0898 25.5393 18.0003 23.7331 16.534C24.5443 16.074 25.5273 15.8028 26.6026 15.8028C29.5158 15.8028 31.764 17.7857 31.764 20.1195V20.2195H31.864H32.736H32.836V20.1195C32.836 17.0879 29.9925 14.7254 26.6026 14.7254C25.1696 14.7254 23.8425 15.1462 22.7863 15.8602C21.2443 14.9017 19.3569 14.3421 17.3352 14.3421C15.3529 14.3421 13.5064 14.8801 11.9894 15.8047C10.9414 15.1245 9.64147 14.7254 8.24595 14.7254C4.85538 14.7254 2.0416 17.0885 2.0416 20.1195V20.2195H2.1416H3.01365H3.11365V20.1195C3.11365 17.7851 5.3335 15.8028 8.24595 15.8028C9.27804 15.8028 10.2288 16.0527 11.0254 16.4795C9.19133 17.9486 8.03301 20.0608 8.03301 22.4419ZM17.3352 3.69041C14.7358 3.69041 12.6341 5.85816 12.6341 8.47538C12.6341 11.094 14.737 13.2162 17.3352 13.2162C19.9322 13.2162 22.0801 11.0952 22.0802 8.47538C22.0801 5.85692 19.9334 3.69041 17.3352 3.69041ZM17.3352 5.21634C19.1084 5.21634 20.5655 6.6848 20.5656 8.47538C20.5655 10.2644 19.1102 11.6902 17.3352 11.6902C15.562 11.6902 14.1487 10.2661 14.1487 8.47538C14.1487 6.68306 15.5637 5.21634 17.3352 5.21634ZM8.24595 7.67625C6.50254 7.67625 5.09379 9.12645 5.09378 10.8767C5.09379 12.6283 6.50377 14.0479 8.24595 14.0479C9.98689 14.0479 11.4272 12.6295 11.4272 10.8767C11.4272 9.12521 9.98813 7.67625 8.24595 7.67625ZM8.24595 8.75373C9.40357 8.75373 10.3551 9.71034 10.3551 10.8767C10.3551 12.0414 9.4053 12.9704 8.24595 12.9704C7.08833 12.9704 6.16584 12.0431 6.16582 10.8767C6.16584 9.7086 7.09004 8.75373 8.24595 8.75373ZM26.6026 7.67625C24.8592 7.67625 23.4504 9.12645 23.4504 10.8767C23.4504 12.6283 24.8604 14.0479 26.6026 14.0479C28.3435 14.0479 29.7838 12.6295 29.7838 10.8767C29.7838 9.12521 28.3448 7.67625 26.6026 7.67625ZM26.6026 8.75373C27.7602 8.75373 28.7118 9.71034 28.7118 10.8767C28.7118 12.0414 27.7619 12.9704 26.6026 12.9704C25.445 12.9704 24.5225 12.0431 24.5225 10.8767C24.5225 9.7086 25.4467 8.75373 26.6026 8.75373Z" fill="#0126A8" stroke="#0126A8" stroke-width="0.2"/>
</svg>
