<svg width="19" height="23" viewBox="0 0 19 23" fill="none" xmlns="http://www.w3.org/2000/svg">
<path d="M9.76025 0.487583L9.76026 0.487567L9.75849 0.487158C9.7176 0.477722 9.67835 0.474997 9.64 0.474997H1.48C1.16077 0.474997 0.9 0.735768 0.9 1.055V19.775C0.9 20.0942 1.16077 20.355 1.48 20.355H10.7967C11.5956 21.5133 12.929 22.275 14.44 22.275C16.876 22.275 18.86 20.291 18.86 17.855C18.86 15.7828 17.4252 14.0438 15.5 13.5664V6.335C15.5 6.29664 15.4973 6.2574 15.4878 6.21651L15.4879 6.21651L15.4874 6.21474C15.4819 6.19263 15.4742 6.16945 15.4669 6.14939L15.4646 6.14035L15.461 6.12594L15.4589 6.11752L15.4554 6.10958C15.446 6.08856 15.4338 6.06723 15.4247 6.05134C15.4221 6.04682 15.4198 6.04274 15.4178 6.03923L15.4181 6.03907L15.4144 6.03355L15.4139 6.03262L15.4122 6.02942L15.412 6.02906C15.4103 6.0259 15.406 6.01808 15.3991 6.00917C15.3791 5.97868 15.3564 5.95078 15.3291 5.92349L10.0515 0.645886L9.98102 0.716377L10.0515 0.645886C10.0242 0.61859 9.99632 0.595886 9.96583 0.575939C9.95692 0.568975 9.9491 0.564719 9.94594 0.562998L9.94559 0.562807L9.94275 0.561277L9.94285 0.561118L9.93577 0.557181C9.93226 0.555232 9.92817 0.55289 9.92365 0.550295C9.90776 0.541187 9.88644 0.528959 9.86542 0.519616L9.85748 0.516089L9.84906 0.513983L9.83465 0.510383L9.82561 0.508121C9.80556 0.500759 9.78237 0.493112 9.76025 0.487583ZM4.84 12.475C4.52077 12.475 4.26 12.7358 4.26 13.055C4.26 13.3742 4.52077 13.635 4.84 13.635H11.56C11.8792 13.635 12.14 13.3742 12.14 13.055C12.14 12.7358 11.8792 12.475 11.56 12.475H4.84ZM4.84 11.235H11.56C11.8792 11.235 12.14 10.9742 12.14 10.655C12.14 10.3358 11.8792 10.075 11.56 10.075H4.84C4.52077 10.075 4.26 10.3358 4.26 10.655C4.26 10.9742 4.52077 11.235 4.84 11.235ZM10.22 2.45562L13.5194 5.755H10.22V2.45562ZM4.84 14.875C4.52077 14.875 4.26 15.1358 4.26 15.455C4.26 15.7742 4.52077 16.035 4.84 16.035H10.4176C10.1654 16.5895 10.02 17.2045 10.02 17.855C10.02 18.3238 10.0964 18.7724 10.2325 19.195H2.06V1.635H9.06V6.335C9.06 6.65423 9.32077 6.915 9.64 6.915H14.34V13.4361C13.0918 13.4642 11.9722 14.0163 11.1845 14.875H4.84ZM14.44 14.595C16.2376 14.595 17.7 16.0574 17.7 17.855C17.7 19.6526 16.2376 21.115 14.44 21.115C12.6424 21.115 11.18 19.6526 11.18 17.855C11.18 16.0574 12.6424 14.595 14.44 14.595ZM15.88 17.275H15.02V16.415C15.02 16.0958 14.7592 15.835 14.44 15.835C14.1208 15.835 13.86 16.0958 13.86 16.415V17.275H13C12.6808 17.275 12.42 17.5358 12.42 17.855C12.42 18.1742 12.6808 18.435 13 18.435H13.86V19.295C13.86 19.6142 14.1208 19.875 14.44 19.875C14.7592 19.875 15.02 19.6142 15.02 19.295V18.435H15.88C16.1992 18.435 16.46 18.1742 16.46 17.855C16.46 17.5358 16.1992 17.275 15.88 17.275Z" fill="black" stroke="black" stroke-width="0.2"/>
</svg>
