<svg width="16" height="21" viewBox="0 0 16 21" fill="none" xmlns="http://www.w3.org/2000/svg">
<path d="M14.825 20.565L14.8324 20.5644C15.1492 20.5408 15.3228 20.4054 15.4128 20.2619C15.4563 20.1926 15.4779 20.1252 15.4888 20.075C15.4942 20.0498 15.497 20.0286 15.4984 20.0132C15.4992 20.0054 15.4996 19.999 15.4998 19.9943L15.5 19.9884L15.5 19.9864L15.5 19.9856L15.5 19.9853L15.5 19.9851C15.5 19.9851 15.5 19.985 15.4 19.985H15.5V13.8554V6.545C15.5 6.50665 15.4973 6.46741 15.4878 6.42652L15.4879 6.42651L15.4874 6.42475C15.4819 6.40263 15.4742 6.37945 15.4669 6.35939L15.461 6.33595L15.4589 6.32753L15.4554 6.31959C15.446 6.29857 15.4338 6.27724 15.4247 6.26135C15.4221 6.25683 15.4198 6.25275 15.4178 6.24924L15.4181 6.24908L15.4144 6.24356L15.4139 6.24263L15.4122 6.23942L15.412 6.23907C15.4103 6.2359 15.406 6.22809 15.3991 6.21917C15.3791 6.18869 15.3564 6.16079 15.3291 6.13349L10.0515 0.855893L9.98102 0.926383L10.0515 0.855893C10.0242 0.828597 9.99632 0.805892 9.96583 0.785946C9.95692 0.778982 9.9491 0.774725 9.94594 0.773004L9.94559 0.772814L9.94275 0.771284L9.94285 0.771125L9.93577 0.767188C9.93226 0.765239 9.92817 0.762897 9.92365 0.760302C9.90776 0.751194 9.88644 0.738965 9.86542 0.729623L9.85748 0.726096L9.84906 0.723989L9.82561 0.718127C9.80555 0.710766 9.78237 0.703118 9.76025 0.697589L9.76026 0.697573L9.75849 0.697164C9.7176 0.687729 9.67835 0.685004 9.64 0.685004H1.48C1.16077 0.685004 0.9 0.945775 0.9 1.265V19.985C0.9 20.3042 1.16077 20.565 1.48 20.565L14.825 20.5647V20.565ZM4.84 15.085C4.52077 15.085 4.26 15.3458 4.26 15.665C4.26 15.9842 4.52077 16.245 4.84 16.245L11.56 16.245C11.8792 16.245 12.14 15.9842 12.14 15.665C12.14 15.3458 11.8792 15.085 11.56 15.085H4.84ZM4.84 12.685C4.52077 12.685 4.26 12.9458 4.26 13.265C4.26 13.5842 4.52077 13.845 4.84 13.845H11.56C11.8792 13.845 12.14 13.5842 12.14 13.265C12.14 12.9458 11.8792 12.685 11.56 12.685H4.84ZM4.84 11.445H11.56C11.8792 11.445 12.14 11.1842 12.14 10.865C12.14 10.5458 11.8792 10.285 11.56 10.285H4.84C4.52077 10.285 4.26 10.5458 4.26 10.865C4.26 11.1842 4.52077 11.445 4.84 11.445ZM10.22 2.66563L13.5194 5.965H10.22V2.66563ZM14.34 7.125V13.745V19.405H2.06V1.845H9.06V6.545C9.06 6.86423 9.32077 7.125 9.64 7.125H14.34Z" fill="black" stroke="black" stroke-width="0.2"/>
</svg>
