<svg width="19" height="25" viewBox="0 0 19 25" fill="none" xmlns="http://www.w3.org/2000/svg">
<path d="M10.8575 2.94109L10.8491 2.93899L10.8347 2.93539L10.8256 2.93312C10.8056 2.92576 10.7824 2.91811 10.7603 2.91259L10.7603 2.91257L10.7585 2.91216C10.7176 2.90273 10.6784 2.9 10.64 2.9H2.48C2.16077 2.9 1.9 3.16077 1.9 3.48V22.2C1.9 22.5192 2.16077 22.78 2.48 22.78L9.25148 22.7798L13.7769 22.7797L15.2624 22.7797L15.678 22.7797L15.7874 22.7797H15.8155H15.8226H15.8244H15.8248H15.825V22.78L15.8324 22.7794C16.1492 22.7558 16.3228 22.6204 16.4128 22.4769C16.4563 22.4076 16.4779 22.3402 16.4888 22.29C16.4942 22.2648 16.497 22.2436 16.4984 22.2282C16.4992 22.2204 16.4996 22.214 16.4998 22.2093L16.5 22.2034L16.5 22.2014L16.5 22.2006L16.5 22.2003L16.5 22.2001C16.5 22.2001 16.5 22.2 16.4 22.2H16.5V16.0704V8.76C16.5 8.72165 16.4973 8.6824 16.4878 8.64151L16.4879 8.64151L16.4874 8.63975C16.4819 8.61763 16.4742 8.59445 16.4669 8.5744L16.4646 8.56535L16.461 8.55095L16.4589 8.54252L16.4554 8.53459C16.446 8.51356 16.4338 8.49223 16.4247 8.47634C16.4221 8.47182 16.4198 8.46774 16.4178 8.46424L16.4181 8.46408L16.4144 8.45855L16.4139 8.45762L16.4122 8.45442L16.412 8.45407C16.4103 8.4509 16.406 8.44308 16.3991 8.43417C16.3791 8.40368 16.3564 8.37579 16.3291 8.34849L11.0515 3.07089C11.0242 3.04359 10.9963 3.02089 10.9658 3.00094C10.9569 2.99398 10.9491 2.98972 10.9459 2.988L10.9456 2.98781L10.9427 2.98628L10.9429 2.98612L10.9358 2.98218C10.9323 2.98024 10.9282 2.97789 10.9236 2.9753C10.9078 2.96619 10.8864 2.95396 10.8654 2.94462L10.8575 2.94109ZM5.84 14.9C5.52077 14.9 5.26 15.1608 5.26 15.48C5.26 15.7992 5.52077 16.06 5.84 16.06H12.56C12.8792 16.06 13.14 15.7992 13.14 15.48C13.14 15.1608 12.8792 14.9 12.56 14.9H5.84ZM5.84 13.66H12.56C12.8792 13.66 13.14 13.3992 13.14 13.08C13.14 12.7608 12.8792 12.5 12.56 12.5H5.84C5.52077 12.5 5.26 12.7608 5.26 13.08C5.26 13.3992 5.52077 13.66 5.84 13.66ZM11.22 4.88062L14.5194 8.18H11.22V4.88062ZM5.84 17.3C5.52077 17.3 5.26 17.5608 5.26 17.88C5.26 18.1992 5.52077 18.46 5.84 18.46L12.56 18.46C12.8792 18.46 13.14 18.1992 13.14 17.88C13.14 17.5608 12.8792 17.3 12.56 17.3H5.84ZM10.64 9.34H15.34V15.96V21.62H3.06V4.06H10.06V8.76C10.06 9.07923 10.3208 9.34 10.64 9.34Z" fill="black" stroke="black" stroke-width="0.2"/>
</svg>
