<svg width="26" height="26" viewBox="0 0 26 26" fill="none" xmlns="http://www.w3.org/2000/svg">
<g clip-path="url(#clip0_200_167)">
<path d="M13 24.3111C13.1891 24.4747 13.1891 24.4746 13.1891 24.4746L13.1894 24.4743L13.1903 24.4733L13.1939 24.4691L13.2082 24.4526L13.2642 24.3878L13.4792 24.1397C13.6654 23.9247 13.9341 23.6148 14.2637 23.2351C14.9228 22.4757 15.8254 21.4372 16.7994 20.3208C18.7485 18.087 20.9807 15.5447 22.1217 14.3007L22.1217 14.3007C23.1704 13.1572 23.8125 11.593 23.8125 9.89031C23.8125 6.48305 21.1642 3.70234 17.875 3.70234C15.8489 3.70234 14.0693 4.76261 13 6.36836C11.9307 4.76261 10.1511 3.70234 8.125 3.70234C4.83576 3.70234 2.1875 6.48305 2.1875 9.89031C2.1875 11.593 2.82911 13.1572 3.87827 14.3007C5.01934 15.5447 7.25152 18.087 9.20057 20.3208C10.1746 21.4372 11.0772 22.4757 11.7363 23.2351C12.0659 23.6148 12.3346 23.9247 12.5208 24.1397L12.7358 24.3878L12.7918 24.4526L12.8061 24.4691L12.8097 24.4733L12.8106 24.4743L12.8109 24.4746C12.8109 24.4746 12.8109 24.4747 13 24.3111ZM13 24.3111L12.8109 24.4747L13 24.6932L13.1891 24.4747L13 24.3111ZM13.9134 7.40433L13.6967 7.27972L13.9135 7.40433C14.7635 5.92583 16.2446 5.05062 17.875 5.05062C20.415 5.05062 22.5 7.21158 22.5 9.89031C22.5 11.2027 22.0253 12.4397 21.1666 13.3762C19.3659 15.339 14.8358 20.549 13 22.6652C11.1642 20.5489 6.63407 15.339 4.83335 13.3761C3.9748 12.4403 3.49578 11.1911 3.5 9.89112V9.89031C3.5 7.21158 5.58496 5.05062 8.125 5.05062C9.75544 5.05062 11.2365 5.92583 12.0865 7.40433L12.3033 7.27972L12.0866 7.40433L12.7833 8.61611L13 8.99305L13.2167 8.61611L13.9134 7.40433Z" fill="black" stroke="black" stroke-width="0.5"/>
</g>
<defs>
<clipPath id="clip0_200_167">
<rect width="26" height="24.6316" fill="white" transform="translate(0 0.559212)"/>
</clipPath>
</defs>
</svg>
