<svg width="20" height="19" viewBox="0 0 20 19" fill="none" xmlns="http://www.w3.org/2000/svg">
<path d="M3.50621 3.33302V6.97736L0.929289 9.55429L0.858578 9.625L0.92929 9.69571L3.50621 12.2726V15.917V16.017H3.60621H7.25054L9.82751 18.5939L9.89822 18.6646L9.96893 18.5939L12.5458 16.017H16.1901H16.2901V15.917V12.2726L18.8671 9.69571L18.9378 9.625L18.8671 9.55429L16.2901 6.97735V3.33302V3.23302H16.1901H12.5458L9.96893 0.656096L9.89822 0.585385L9.82751 0.656095L7.25054 3.23302H3.60621H3.50621V3.33302ZM7.67166 4.34968H7.71309L7.74237 4.3204L9.89822 2.16459L12.054 4.3204L12.0833 4.34968H12.1247H15.1735V7.39846V7.43988L15.2028 7.46917L17.3586 9.625L15.2028 11.7808L15.1735 11.8101V11.8515V14.9002H12.1247H12.0833L12.054 14.9295L9.89822 17.0854L7.74237 14.9295L7.71308 14.9002H7.67166H4.62288V11.8515V11.8101L4.59359 11.7808L2.43778 9.625L4.59359 7.46918L4.62288 7.43989V7.39847V4.34968H7.67166ZM9.89822 6.77501C8.32417 6.77501 7.0482 8.05104 7.0482 9.625C7.0482 11.1991 8.32417 12.475 9.89822 12.475C11.4722 12.475 12.7482 11.1991 12.7482 9.625C12.7482 8.05104 11.4722 6.77501 9.89822 6.77501ZM8.16487 9.625C8.16487 8.66768 8.9409 7.89167 9.89822 7.89167C10.8555 7.89167 11.6316 8.66768 11.6316 9.625C11.6316 10.5823 10.8555 11.3583 9.89822 11.3583C8.9409 11.3583 8.16487 10.5823 8.16487 9.625Z" fill="black" fill-opacity="0.88" stroke="black" stroke-width="0.2"/>
</svg>
