<svg width="27" height="28" viewBox="0 0 27 28" fill="none" xmlns="http://www.w3.org/2000/svg">
<path d="M8.26875 19.5098V19.7098H8.46875H9.14258H9.34258V19.5098C9.34258 17.8035 10.983 16.3182 13.1855 16.3182C15.3896 16.3182 17.051 17.8048 17.051 19.5098V19.7098H17.251H17.9248H18.1248V19.5098C18.1248 17.0953 15.8527 15.2443 13.1855 15.2443C10.517 15.2443 8.26875 17.0964 8.26875 19.5098ZM13.5 1.925C7.0424 1.925 1.8 7.16741 1.8 13.625C1.8 20.0826 7.04239 25.325 13.5 25.325C19.9576 25.325 25.2 20.0826 25.2 13.625C25.2 7.16741 19.9576 1.925 13.5 1.925ZM13.5 3.02129C19.36 3.02129 24.1037 7.76495 24.1037 13.625C24.1037 19.485 19.36 24.2287 13.5 24.2287C7.63998 24.2287 2.89629 19.485 2.89629 13.625C2.89629 7.76495 7.63998 3.02129 13.5 3.02129ZM13.1855 9.83125C11.7696 9.83125 10.6272 11.0011 10.6271 12.4121C10.6272 13.8257 11.772 14.9705 13.1855 14.9705C14.5966 14.9705 15.7664 13.8281 15.7664 12.4121C15.7664 10.9986 14.5991 9.83125 13.1855 9.83125ZM13.1855 10.9051C14.0127 10.9051 14.6926 11.585 14.6926 12.4121C14.6926 13.2359 14.0162 13.8967 13.1855 13.8967C12.3584 13.8967 11.701 13.2393 11.701 12.4121C11.701 11.5815 12.3618 10.9051 13.1855 10.9051Z" fill="black" fill-opacity="0.88" stroke="black" stroke-width="0.4"/>
</svg>
