<svg width="14" height="14" viewBox="0 0 14 14" fill="none" xmlns="http://www.w3.org/2000/svg">
<path fill-rule="evenodd" clip-rule="evenodd" d="M12.7291 1.36094C12.7302 1.39669 12.724 1.43229 12.7109 1.46557C12.6978 1.49886 12.6781 1.52914 12.653 1.55459C12.6413 1.56596 12.627 1.57138 12.614 1.58031L11.8854 2.30886L12.0723 2.49573C12.0853 2.50467 12.0999 2.51009 12.1113 2.52146C12.1364 2.54686 12.1561 2.5771 12.1692 2.61034C12.1823 2.64358 12.1885 2.67913 12.1874 2.71484C12.1885 2.75058 12.1823 2.78618 12.1692 2.81947C12.1561 2.85276 12.1364 2.88304 12.1113 2.90848C12.0999 2.91986 12.0853 2.92527 12.0723 2.93421L3.48309 11.524C3.45362 11.5834 3.40315 11.6298 3.34145 11.6542L0.687279 12.6953C0.671591 12.7033 0.655175 12.7097 0.638258 12.7145L0.635008 12.7159C0.632841 12.7167 0.630404 12.7162 0.628508 12.717C0.578494 12.7333 0.524642 12.7337 0.474404 12.7181C0.468987 12.7164 0.463841 12.7175 0.458154 12.7156C0.455987 12.7148 0.454633 12.7129 0.452466 12.7121C0.429024 12.7027 0.407118 12.6898 0.387466 12.6739C0.376904 12.6663 0.365799 12.6596 0.356862 12.6506C0.347924 12.6417 0.341154 12.6306 0.33357 12.62C0.317725 12.6003 0.304859 12.5784 0.295383 12.555C0.294299 12.5529 0.292674 12.5515 0.291862 12.5493C0.289966 12.5439 0.291049 12.5385 0.289424 12.5328C0.282067 12.5081 0.278326 12.4825 0.27832 12.4567C0.27832 12.4296 0.283737 12.4044 0.290508 12.379C0.291591 12.3768 0.290779 12.3746 0.291591 12.3728L0.293216 12.3692C0.298633 12.3522 0.303779 12.3359 0.312174 12.3202L1.35326 9.66604C1.37783 9.60436 1.42432 9.55392 1.4838 9.5244L9.00294 2.00579C8.96767 1.89273 8.89726 1.79387 8.80194 1.72359C8.70662 1.6533 8.59136 1.61526 8.47292 1.61498C8.30799 1.61498 8.16119 1.68784 8.05909 1.80159L8.05828 1.80104L7.17807 2.68125L7.17888 2.68206L5.3272 4.53375C5.27709 4.5808 5.21064 4.6065 5.14191 4.60541C5.07319 4.60433 5.00758 4.57655 4.95898 4.52795C4.91038 4.47935 4.88259 4.41374 4.88151 4.34501C4.88043 4.27629 4.90613 4.20984 4.95317 4.15973L7.67478 1.4384C7.67938 1.43379 7.68507 1.43244 7.68994 1.42838C7.7906 1.32165 7.91199 1.23659 8.04667 1.17843C8.18135 1.12026 8.32649 1.09021 8.47319 1.09011C8.8659 1.09011 9.20417 1.30244 9.39294 1.61606L10.0738 0.93546C10.0828 0.922731 10.0882 0.908106 10.0995 0.896731C10.1249 0.871489 10.1552 0.851713 10.1885 0.838624C10.2218 0.825534 10.2574 0.819409 10.2932 0.820627C10.329 0.819409 10.3646 0.825534 10.3979 0.838624C10.4312 0.851713 10.4615 0.871489 10.4868 0.896731C10.4982 0.908106 10.5036 0.922731 10.5126 0.93546L10.6994 1.12234L11.428 0.393794C11.4369 0.381064 11.4423 0.366439 11.4537 0.355064C11.4791 0.329822 11.5094 0.310046 11.5427 0.296957C11.576 0.283868 11.6116 0.277743 11.6474 0.27896C11.6831 0.277743 11.7188 0.283868 11.7521 0.296957C11.7854 0.310046 11.8156 0.329822 11.841 0.355064C11.8524 0.366439 11.8578 0.381064 11.8667 0.393794L12.6148 1.14184C12.6278 1.15077 12.6421 1.15619 12.6538 1.16756C12.6786 1.19311 12.6981 1.2234 12.711 1.25661C12.724 1.28983 12.7301 1.32531 12.7291 1.36094V1.36094ZM1.04938 11.9586L2.77622 11.281L1.72674 10.2315L1.04938 11.9586V11.9586ZM10.2927 1.46413L2.00001 9.75677L3.25099 11.0078L11.5436 2.71511L10.2927 1.46413V1.46413ZM11.6468 0.92246L11.0729 1.49636L11.5114 1.93484L12.0853 1.36094L11.6468 0.92246V0.92246Z" fill="#1A1A1A"/>
<path fill-rule="evenodd" clip-rule="evenodd" d="M12.793 1.69765C12.7714 1.71874 12.75 1.73227 12.7381 1.73932L12.1686 2.30884L12.1963 2.33654C12.2084 2.34369 12.2308 2.35778 12.253 2.38003L12.2538 2.38082C12.298 2.42548 12.3326 2.47864 12.3556 2.53708C12.3779 2.59365 12.3888 2.65402 12.3877 2.71476C12.3888 2.77555 12.3779 2.83599 12.3557 2.89261C12.3327 2.95111 12.298 3.00433 12.2539 3.04904L12.253 3.04989C12.2308 3.07214 12.2084 3.08623 12.1963 3.09337L3.64474 11.6454C3.59196 11.7336 3.51143 11.8022 3.41528 11.8402L0.768324 12.8785C0.748204 12.8881 0.727431 12.8963 0.706161 12.903C0.705711 12.9032 0.704652 12.9035 0.704201 12.9036C0.693148 12.9077 0.683045 12.9103 0.674601 12.9121C0.596336 12.9344 0.513512 12.9353 0.43483 12.9146C0.428293 12.9129 0.421785 12.911 0.41531 12.909L0.474697 12.7181L0.417227 12.9096C0.430151 12.9135 0.440881 12.9151 0.447345 12.9159L0.453814 12.9165C0.451939 12.9164 0.443976 12.9159 0.43483 12.9146C0.434763 12.9146 0.434897 12.9146 0.43483 12.9146C0.424422 12.9132 0.410722 12.9105 0.395201 12.9054L0.388174 12.903C0.377556 12.899 0.36847 12.8945 0.360946 12.8903C0.366609 12.8929 0.372327 12.8953 0.378098 12.8976L0.382534 12.8994C0.381022 12.8988 0.379543 12.8982 0.378098 12.8976C0.363235 12.8916 0.35194 12.8849 0.344722 12.8802C0.340803 12.8776 0.337775 12.8755 0.336036 12.8742C0.335117 12.8735 0.334294 12.8729 0.333867 12.8725M0.387759 12.6739C0.407411 12.6898 0.429317 12.7027 0.452759 12.7121C0.453842 12.7125 0.454723 12.7132 0.455603 12.7139C0.456483 12.7145 0.457363 12.7152 0.458447 12.7156M0.628801 12.717C0.629754 12.7166 0.630845 12.7165 0.631969 12.7164C0.63308 12.7164 0.634224 12.7163 0.635301 12.7159L0.638551 12.7145C0.655468 12.7097 0.671884 12.7033 0.687572 12.6953L3.34174 11.6542C3.40345 11.6298 3.45392 11.5834 3.48338 11.5239L12.0726 2.9342C12.0773 2.93095 12.0822 2.92817 12.0872 2.92541C12.0958 2.92054 12.1043 2.91572 12.1116 2.90847C12.1367 2.88303 12.1564 2.85274 12.1695 2.81946C12.1826 2.78617 12.1888 2.75057 12.1877 2.71482C12.1888 2.67912 12.1826 2.64357 12.1695 2.61033C12.1564 2.57709 12.1367 2.54685 12.1116 2.52145C12.1043 2.5142 12.0958 2.50937 12.0872 2.50451C12.0822 2.50174 12.0773 2.49896 12.0726 2.49572L11.8857 2.30884L12.6143 1.5803C12.619 1.57705 12.6239 1.57426 12.6288 1.57149C12.6373 1.56663 12.6459 1.56181 12.6533 1.55457C12.6784 1.52913 12.6981 1.49885 12.7112 1.46556C12.7243 1.43227 12.7305 1.39668 12.7294 1.36093C12.7304 1.3253 12.7243 1.28982 12.7113 1.2566C12.6984 1.22338 12.6789 1.1931 12.6541 1.16755C12.6467 1.16032 12.6382 1.15549 12.6296 1.15064C12.6247 1.14786 12.6198 1.14508 12.6151 1.14182L11.867 0.393781C11.8637 0.389063 11.8609 0.384084 11.8581 0.379107C11.8533 0.370656 11.8485 0.362211 11.8413 0.355052C11.8159 0.32981 11.7857 0.310034 11.7524 0.296945C11.7191 0.283855 11.6834 0.277731 11.6477 0.278948C11.6119 0.277731 11.5763 0.283855 11.5429 0.296945C11.5096 0.310034 11.4794 0.32981 11.454 0.355052C11.4468 0.362211 11.4421 0.370656 11.4372 0.379107C11.4344 0.384084 11.4316 0.389063 11.4283 0.393781L10.6997 1.12232L10.5129 0.935448C10.5096 0.930729 10.5067 0.92575 10.5039 0.920772C10.4991 0.912322 10.4943 0.903877 10.4871 0.896719C10.4618 0.871477 10.4315 0.851701 10.3982 0.838611C10.3649 0.825522 10.3293 0.819397 10.2935 0.820615C10.2577 0.819397 10.2221 0.825522 10.1888 0.838611C10.1555 0.851701 10.1252 0.871477 10.0998 0.896719C10.0927 0.903877 10.0879 0.912322 10.0831 0.920772C10.0803 0.92575 10.0774 0.930729 10.0741 0.935448L9.39324 1.61605C9.35827 1.55796 9.31817 1.50334 9.27355 1.4529C9.07728 1.23105 8.79345 1.09009 8.47349 1.09009C8.32678 1.0902 8.18164 1.12025 8.04696 1.17842C7.91228 1.23658 7.79089 1.32164 7.69024 1.42836C7.68804 1.4302 7.68568 1.43148 7.68332 1.43275C7.68046 1.43431 7.6776 1.43586 7.67507 1.43839L4.95347 4.15972C4.90642 4.20983 4.88072 4.27628 4.8818 4.345C4.88289 4.41373 4.91067 4.47933 4.95927 4.52794C5.00787 4.57654 5.07348 4.60432 5.1422 4.6054C5.21093 4.60649 5.27738 4.58079 5.32749 4.53374L7.17917 2.68205L7.17836 2.68124L8.05857 1.80103C8.16068 1.68728 8.30828 1.61497 8.47322 1.61497C8.59165 1.61524 8.70691 1.65329 8.80223 1.72358C8.89755 1.79386 8.96797 1.89272 9.00324 2.00578L1.48409 9.52439C1.42461 9.5539 1.37813 9.60434 1.35355 9.66603L0.312467 12.3202C0.304103 12.3358 0.298964 12.352 0.29357 12.369L0.291884 12.3727C0.291508 12.3736 0.29148 12.3746 0.291451 12.3755C0.291418 12.3766 0.291383 12.3778 0.290801 12.379C0.28403 12.4044 0.278613 12.4296 0.278613 12.4567C0.278619 12.4825 0.282359 12.5081 0.289717 12.5328C0.290489 12.5355 0.29065 12.5381 0.290809 12.5407C0.290985 12.5436 0.291159 12.5465 0.292155 12.5493C0.292604 12.5505 0.293302 12.5515 0.29402 12.5524C0.294599 12.5532 0.295192 12.554 0.295676 12.555C0.305152 12.5784 0.318018 12.6003 0.333863 12.62C0.335718 12.6226 0.337524 12.6252 0.339325 12.6278C0.344888 12.6359 0.350403 12.6439 0.357155 12.6506C0.363908 12.6574 0.371898 12.6629 0.379956 12.6684C0.382563 12.6702 0.385177 12.6721 0.387759 12.6739M0.117632 12.6472C0.113458 12.6396 0.108953 12.6304 0.104889 12.6195L0.103337 12.6154C0.0974285 12.5985 0.0946384 12.5837 0.0931397 12.573C0.0930541 12.5724 0.0929721 12.5718 0.0928935 12.5712C0.083425 12.5338 0.0786222 12.4954 0.0786133 12.4567C0.0786133 12.4091 0.0872199 12.3679 0.094824 12.3379C0.0967857 12.3271 0.100108 12.3138 0.105908 12.2992C0.110546 12.2847 0.118153 12.2624 0.129626 12.2386L1.16775 9.59201C1.20597 9.49609 1.27459 9.41577 1.36258 9.36306L8.762 1.96417C8.74033 1.93386 8.7139 1.90694 8.68354 1.88455C8.62253 1.83956 8.54877 1.81519 8.47297 1.81497C8.36889 1.81504 8.27507 1.8607 8.20822 1.93517L8.09255 2.06404L8.08406 2.05838L7.46121 2.68124L7.46202 2.68205L5.46445 4.67962C5.37646 4.76223 5.25972 4.80728 5.13905 4.80538C5.01838 4.80347 4.90319 4.75469 4.81785 4.66936C4.73251 4.58402 4.68373 4.46882 4.68183 4.34816C4.67993 4.22749 4.72505 4.11081 4.80766 4.02283L4.81198 4.01822L7.53365 1.29696C7.54368 1.28693 7.55382 1.27884 7.56254 1.27264C7.67828 1.15475 7.81585 1.06037 7.96766 0.994808C8.12734 0.925846 8.29942 0.890214 8.47335 0.890094C8.85002 0.890094 9.18354 1.05442 9.4152 1.31131L9.9153 0.811409C9.92238 0.799485 9.93641 0.777308 9.95842 0.755298C10.0032 0.71078 10.0569 0.675556 10.1156 0.652471C10.1723 0.630216 10.2327 0.619376 10.2935 0.620549C10.3543 0.619376 10.4147 0.630216 10.4713 0.652471C10.5301 0.675555 10.5835 0.710433 10.6282 0.754953C10.6502 0.776973 10.6646 0.799505 10.6717 0.811425L10.6997 0.83948L11.2695 0.269758C11.2765 0.257838 11.2906 0.235651 11.3126 0.213631C11.3573 0.169113 11.4111 0.133889 11.4698 0.110804C11.5264 0.088549 11.5869 0.0777095 11.6477 0.0788824C11.7084 0.0777094 11.7689 0.0885492 11.8255 0.110804C11.8843 0.133889 11.9376 0.168766 11.9824 0.213286C12.0044 0.235307 12.0188 0.257838 12.0258 0.269758L12.7389 0.982808C12.7508 0.989857 12.7722 1.00339 12.7938 1.02448L12.7975 1.02804C12.841 1.07279 12.8751 1.12587 12.8977 1.18404C12.9196 1.24035 12.9304 1.30037 12.9294 1.36076C12.9305 1.42159 12.9196 1.48206 12.8973 1.53872C12.8743 1.59721 12.8397 1.65043 12.7955 1.69514L12.793 1.69765M0.117632 12.6472C0.132511 12.68 0.151225 12.711 0.173392 12.7395L0.174866 12.7416L0.182755 12.7529C0.189181 12.7618 0.2003 12.7766 0.215734 12.792C0.231166 12.8075 0.245985 12.8186 0.2549 12.825L0.266137 12.8329L0.268137 12.8343C0.296738 12.8566 0.327898 12.8754 0.360946 12.8903C0.355611 12.8874 0.351085 12.8846 0.347414 12.8822C0.343028 12.8793 0.339548 12.8768 0.337363 12.8752L0.336036 12.8742M1.04968 11.9586L1.72703 10.2315L2.77651 11.281L1.04968 11.9586ZM1.40317 11.6051L2.41908 11.2064L1.80166 10.589L1.40317 11.6051ZM10.2929 1.46411L2.0003 9.75676L3.25128 11.0077L11.5439 2.71509L10.2929 1.46411ZM11.2611 2.71509L10.2929 1.74696L2.28314 9.75676L3.25128 10.7249L11.2611 2.71509ZM11.6471 0.922448L11.0732 1.49634L11.5117 1.93482L12.0856 1.36093L11.6471 0.922448ZM11.6471 1.20529L11.3561 1.49634L11.5117 1.65198L11.8027 1.36093L11.6471 1.20529Z" fill="#1A1A1A"/>
</svg>
