<svg width="14" height="13" viewBox="0 0 14 13" fill="none" xmlns="http://www.w3.org/2000/svg">
<g clip-path="url(#clip0_200_287)">
<path fill-rule="evenodd" clip-rule="evenodd" d="M12.733 1.36094C12.7341 1.39669 12.7279 1.43229 12.7148 1.46557C12.7017 1.49886 12.682 1.52914 12.6569 1.55459C12.6452 1.56596 12.6309 1.57138 12.6179 1.58031L11.8893 2.30886L12.0762 2.49573C12.0892 2.50467 12.1038 2.51009 12.1152 2.52146C12.1403 2.54686 12.16 2.5771 12.1731 2.61034C12.1862 2.64358 12.1924 2.67913 12.1913 2.71484C12.1924 2.75058 12.1862 2.78618 12.1731 2.81947C12.1601 2.85276 12.1403 2.88304 12.1152 2.90848C12.1038 2.91986 12.0892 2.92527 12.0762 2.93421L3.487 11.524C3.45753 11.5834 3.40706 11.6298 3.34535 11.6542L0.691185 12.6953C0.675497 12.7033 0.659081 12.7097 0.642164 12.7145L0.638914 12.7159C0.636747 12.7167 0.63431 12.7162 0.632414 12.717C0.5824 12.7333 0.528548 12.7337 0.47831 12.7181C0.472893 12.7164 0.467747 12.7175 0.46206 12.7156C0.459893 12.7148 0.458539 12.7129 0.456372 12.7121C0.432931 12.7027 0.411024 12.6898 0.391372 12.6739C0.38081 12.6663 0.369706 12.6596 0.360768 12.6506C0.351831 12.6417 0.34506 12.6306 0.337477 12.62C0.321631 12.6003 0.308765 12.5784 0.299289 12.555C0.298206 12.5529 0.296581 12.5515 0.295768 12.5493C0.293872 12.5439 0.294956 12.5385 0.293331 12.5328C0.285973 12.5081 0.282233 12.4825 0.282227 12.4567C0.282227 12.4296 0.287643 12.4044 0.294414 12.379C0.295497 12.3768 0.294685 12.3746 0.295497 12.3728L0.297122 12.3692C0.302539 12.3522 0.307685 12.3359 0.316081 12.3202L1.35716 9.66604C1.38174 9.60436 1.42823 9.55392 1.48771 9.5244L9.00685 2.00579C8.97158 1.89273 8.90117 1.79387 8.80584 1.72359C8.71052 1.6533 8.59526 1.61526 8.47683 1.61498C8.31189 1.61498 8.1651 1.68784 8.063 1.80159L8.06218 1.80104L7.18198 2.68125L7.18279 2.68206L5.3311 4.53375C5.28099 4.5808 5.21454 4.6065 5.14582 4.60541C5.07709 4.60433 5.01149 4.57655 4.96289 4.52795C4.91428 4.47935 4.8865 4.41374 4.88542 4.34501C4.88433 4.27629 4.91004 4.20984 4.95708 4.15973L7.67868 1.4384C7.68329 1.43379 7.68898 1.43244 7.69385 1.42838C7.79451 1.32165 7.91589 1.23659 8.05057 1.17843C8.18526 1.12026 8.33039 1.09021 8.4771 1.09011C8.86981 1.09011 9.20808 1.30244 9.39685 1.61606L10.0777 0.93546C10.0867 0.922731 10.0921 0.908106 10.1035 0.896731C10.1288 0.871489 10.1591 0.851713 10.1924 0.838624C10.2257 0.825534 10.2613 0.819409 10.2971 0.820627C10.3329 0.819409 10.3685 0.825534 10.4018 0.838624C10.4351 0.851713 10.4654 0.871489 10.4907 0.896731C10.5021 0.908106 10.5075 0.922731 10.5165 0.93546L10.7034 1.12234L11.4319 0.393794C11.4408 0.381064 11.4462 0.366439 11.4576 0.355064C11.483 0.329822 11.5133 0.310046 11.5466 0.296957C11.5799 0.283868 11.6155 0.277743 11.6513 0.27896C11.687 0.277743 11.7227 0.283868 11.756 0.296957C11.7893 0.310046 11.8195 0.329822 11.8449 0.355064C11.8563 0.366439 11.8617 0.381064 11.8706 0.393794L12.6187 1.14184C12.6317 1.15077 12.646 1.15619 12.6577 1.16756C12.6825 1.19311 12.702 1.2234 12.7149 1.25661C12.7279 1.28983 12.734 1.32531 12.733 1.36094ZM1.05329 11.9586L2.78012 11.281L1.73064 10.2315L1.05329 11.9586ZM10.2966 1.46413L2.00391 9.75677L3.25489 11.0078L11.5475 2.71511L10.2966 1.46413ZM11.6507 0.92246L11.0768 1.49636L11.5153 1.93484L12.0892 1.36094L11.6507 0.92246Z" fill="#1A1A1A"/>
<path fill-rule="evenodd" clip-rule="evenodd" d="M12.7969 1.69766C12.7753 1.71875 12.7539 1.73228 12.742 1.73932L12.1725 2.30885L12.2002 2.33655C12.2123 2.3437 12.2347 2.35779 12.2569 2.38003L12.2577 2.38083C12.3019 2.42549 12.3365 2.47865 12.3595 2.53709C12.3818 2.59366 12.3927 2.65403 12.3917 2.71476C12.3927 2.77556 12.3818 2.83599 12.3596 2.89262C12.3366 2.95112 12.3019 3.00434 12.2578 3.04905L12.2569 3.0499C12.2347 3.07214 12.2123 3.08624 12.2002 3.09338L3.64864 11.6454C3.59586 11.7336 3.51534 11.8022 3.41918 11.8402L0.77223 12.8785C0.75211 12.8881 0.731337 12.8963 0.710067 12.903C0.709617 12.9032 0.708558 12.9035 0.708108 12.9037C0.697054 12.9077 0.686952 12.9103 0.678507 12.9121C0.600242 12.9344 0.517418 12.9353 0.438736 12.9146C0.432199 12.9129 0.425691 12.9111 0.419217 12.909L0.478603 12.7181L0.421133 12.9096C0.434057 12.9135 0.444787 12.9151 0.451251 12.9159L0.45772 12.9165C0.455845 12.9164 0.447882 12.9159 0.438736 12.9146C0.438669 12.9146 0.438803 12.9146 0.438736 12.9146C0.428329 12.9132 0.414628 12.9105 0.399107 12.9054L0.39208 12.903C0.381462 12.899 0.372376 12.8945 0.364852 12.8903C0.370515 12.8929 0.376234 12.8953 0.382004 12.8976L0.386441 12.8994C0.384929 12.8988 0.383449 12.8982 0.382004 12.8976C0.367142 12.8916 0.355846 12.8849 0.348629 12.8802C0.344709 12.8777 0.341681 12.8755 0.339943 12.8742C0.339023 12.8735 0.3382 12.8729 0.337773 12.8725M0.391665 12.6739C0.411317 12.6898 0.433224 12.7027 0.456665 12.7121C0.457749 12.7125 0.458629 12.7132 0.459509 12.7139C0.460389 12.7145 0.46127 12.7152 0.462353 12.7156M0.632707 12.717C0.633661 12.7166 0.634751 12.7165 0.635876 12.7164C0.636986 12.7164 0.63813 12.7163 0.639207 12.7159L0.642457 12.7145C0.659374 12.7097 0.67579 12.7033 0.691478 12.6953L3.34564 11.6542C3.40735 11.6298 3.45782 11.5834 3.48729 11.524L12.0765 2.93421C12.0812 2.93096 12.0861 2.92818 12.0911 2.92541C12.0997 2.92055 12.1083 2.91572 12.1155 2.90848C12.1406 2.88304 12.1603 2.85275 12.1734 2.81947C12.1865 2.78618 12.1927 2.75058 12.1916 2.71483C12.1927 2.67912 12.1865 2.64357 12.1734 2.61033C12.1603 2.57709 12.1406 2.54686 12.1155 2.52146C12.1083 2.51421 12.0997 2.50938 12.0911 2.50452C12.0861 2.50175 12.0812 2.49897 12.0765 2.49573L11.8896 2.30885L12.6182 1.58031C12.6229 1.57706 12.6278 1.57427 12.6327 1.57149C12.6413 1.56664 12.6498 1.56182 12.6572 1.55458C12.6823 1.52914 12.702 1.49886 12.7151 1.46557C12.7282 1.43228 12.7344 1.39668 12.7333 1.36093C12.7343 1.3253 12.7282 1.28983 12.7152 1.25661C12.7023 1.22339 12.6828 1.19311 12.658 1.16756C12.6506 1.16033 12.6421 1.1555 12.6335 1.15065C12.6286 1.14787 12.6237 1.14508 12.619 1.14183L11.8709 0.393789C11.8676 0.389071 11.8648 0.384092 11.862 0.379114C11.8572 0.370664 11.8524 0.362218 11.8452 0.35506C11.8198 0.329818 11.7896 0.310042 11.7563 0.296952C11.723 0.283863 11.6873 0.277738 11.6516 0.278956C11.6158 0.277738 11.5802 0.283863 11.5469 0.296952C11.5135 0.310042 11.4833 0.329818 11.4579 0.35506C11.4508 0.362218 11.446 0.370664 11.4412 0.379114C11.4383 0.384092 11.4355 0.389071 11.4322 0.393789L10.7036 1.12233L10.5168 0.935456C10.5135 0.930737 10.5106 0.925757 10.5078 0.920779C10.503 0.91233 10.4982 0.903885 10.491 0.896727C10.4657 0.871484 10.4354 0.851708 10.4021 0.838619C10.3688 0.82553 10.3332 0.819405 10.2974 0.820622C10.2616 0.819405 10.226 0.82553 10.1927 0.838619C10.1594 0.851708 10.1291 0.871484 10.1037 0.896727C10.0966 0.903885 10.0918 0.91233 10.087 0.920779C10.0842 0.925757 10.0813 0.930737 10.078 0.935456L9.39714 1.61606C9.36218 1.55797 9.32208 1.50335 9.27746 1.45291C9.08119 1.23106 8.79736 1.0901 8.47739 1.0901C8.33069 1.0902 8.18555 1.12026 8.05087 1.17842C7.91619 1.23659 7.7948 1.32164 7.69414 1.42837C7.69195 1.4302 7.68958 1.43148 7.68723 1.43276C7.68436 1.43432 7.68151 1.43586 7.67898 1.43839L4.95737 4.15973C4.91033 4.20984 4.88463 4.27629 4.88571 4.34501C4.88679 4.41373 4.91458 4.47934 4.96318 4.52794C5.01178 4.57654 5.07739 4.60433 5.14611 4.60541C5.21484 4.60649 5.28128 4.58079 5.33139 4.53375L7.18308 2.68206L7.18227 2.68125L8.06248 1.80104C8.16458 1.68729 8.31219 1.61498 8.47712 1.61498C8.59556 1.61525 8.71081 1.6533 8.80614 1.72358C8.90146 1.79387 8.97187 1.89273 9.00714 2.00579L1.488 9.52439C1.42852 9.55391 1.38203 9.60435 1.35746 9.66604L0.316374 12.3202C0.308009 12.3359 0.302871 12.352 0.297476 12.369L0.29579 12.3727C0.295414 12.3736 0.295386 12.3746 0.295357 12.3755C0.295324 12.3766 0.295289 12.3778 0.294707 12.379C0.287936 12.4044 0.28252 12.4296 0.28252 12.4567C0.282525 12.4825 0.286266 12.5081 0.293624 12.5328C0.294395 12.5355 0.294556 12.5381 0.294715 12.5408C0.294891 12.5436 0.295065 12.5465 0.296061 12.5493C0.296511 12.5505 0.297209 12.5515 0.297926 12.5525C0.298506 12.5532 0.299098 12.554 0.299582 12.555C0.309058 12.5784 0.321924 12.6003 0.33777 12.62C0.339624 12.6226 0.34143 12.6252 0.343231 12.6278C0.348794 12.6359 0.35431 12.6439 0.361061 12.6506C0.367814 12.6574 0.375804 12.6629 0.383862 12.6685C0.386469 12.6703 0.389084 12.6721 0.391665 12.6739M0.121539 12.6472C0.117364 12.6396 0.112859 12.6304 0.108795 12.6196L0.107243 12.6154C0.101335 12.5985 0.0985447 12.5837 0.097046 12.573C0.0969604 12.5724 0.0968784 12.5718 0.0967997 12.5712C0.0873312 12.5338 0.0825285 12.4954 0.0825195 12.4568C0.0825195 12.4091 0.0911262 12.3679 0.0987302 12.3379C0.100692 12.3272 0.104014 12.3138 0.109814 12.2992C0.114453 12.2847 0.122059 12.2624 0.133533 12.2386L1.17166 9.59201C1.20988 9.49609 1.2785 9.41578 1.36649 9.36306L8.7659 1.96418C8.74423 1.93387 8.71781 1.90695 8.68744 1.88455C8.62643 1.83957 8.55267 1.8152 8.47688 1.81498C8.37279 1.81505 8.27898 1.8607 8.21212 1.93518L8.09645 2.06404L8.08797 2.05839L7.46511 2.68125L7.46592 2.68206L5.46836 4.67963C5.38037 4.76223 5.26363 4.80729 5.14296 4.80539C5.02229 4.80348 4.90709 4.7547 4.82176 4.66936C4.73642 4.58403 4.68764 4.46883 4.68574 4.34816C4.68383 4.22749 4.72896 4.11082 4.81156 4.02283L4.81589 4.01823L7.53756 1.29697C7.54759 1.28694 7.55772 1.27885 7.56645 1.27265C7.68219 1.15476 7.81976 1.06038 7.97157 0.994815C8.13125 0.925854 8.30332 0.890222 8.47726 0.890102C8.85393 0.890102 9.18744 1.05442 9.4191 1.31132L9.91921 0.811416C9.92629 0.799492 9.94032 0.777316 9.96233 0.755305C10.0071 0.710788 10.0608 0.675564 10.1195 0.652478C10.1762 0.630223 10.2366 0.619384 10.2974 0.620557C10.3582 0.619384 10.4186 0.630224 10.4753 0.652478C10.534 0.675563 10.5874 0.710441 10.6321 0.75496C10.6541 0.776981 10.6685 0.799513 10.6756 0.811433L10.7036 0.839488L11.2734 0.269765C11.2804 0.257845 11.2945 0.235659 11.3165 0.213638C11.3612 0.169121 11.415 0.133897 11.4737 0.110812C11.5303 0.0885567 11.5908 0.0777171 11.6516 0.07889C11.7123 0.077717 11.7728 0.0885568 11.8294 0.110812C11.8882 0.133896 11.9415 0.168774 11.9863 0.213294C12.0083 0.235314 12.0227 0.257846 12.0298 0.269766L12.7428 0.982816C12.7547 0.989865 12.7761 1.00339 12.7977 1.02448L12.8014 1.02805C12.8449 1.0728 12.879 1.12587 12.9016 1.18404C12.9235 1.24036 12.9343 1.30038 12.9333 1.36077C12.9344 1.4216 12.9235 1.48207 12.9012 1.53872C12.8782 1.59722 12.8436 1.65044 12.7994 1.69515L12.7969 1.69766M0.121539 12.6472C0.136417 12.68 0.155131 12.711 0.177299 12.7395L0.178772 12.7416L0.186661 12.7529C0.193088 12.7618 0.204206 12.7766 0.21964 12.792C0.235072 12.8075 0.249891 12.8186 0.258806 12.825L0.270044 12.8329L0.272043 12.8343C0.300645 12.8566 0.331805 12.8754 0.364852 12.8903C0.359517 12.8874 0.354992 12.8846 0.35132 12.8822C0.346935 12.8793 0.343454 12.8768 0.341269 12.8752L0.339943 12.8742M1.05358 11.9586L1.73094 10.2315L2.78042 11.281L1.05358 11.9586ZM1.40708 11.6051L2.42298 11.2064L1.80557 10.589L1.40708 11.6051ZM10.2969 1.46412L2.00421 9.75677L3.25519 11.0077L11.5478 2.7151L10.2969 1.46412ZM11.265 2.7151L10.2969 1.74697L2.28705 9.75677L3.25519 10.7249L11.265 2.7151ZM11.651 0.922456L11.0771 1.49635L11.5156 1.93483L12.0895 1.36093L11.651 0.922456ZM11.651 1.2053L11.36 1.49635L11.5156 1.65199L11.8067 1.36093L11.651 1.2053Z" fill="#1A1A1A"/>
</g>
<defs>
<clipPath id="clip0_200_287">
<rect width="13" height="13" fill="white" transform="translate(0.00390625)"/>
</clipPath>
</defs>
</svg>
