<svg width="13" height="12" viewBox="0 0 13 12" fill="none" xmlns="http://www.w3.org/2000/svg">
<path d="M6.5 11L6.68427 11.169L6.68439 11.1688L6.68486 11.1683L6.68673 11.1663L6.69418 11.1582L6.72336 11.1264L6.83524 11.0045C6.93221 10.8989 7.07209 10.7467 7.24366 10.5603C7.58681 10.1873 8.05674 9.6773 8.56384 9.12905C9.57903 8.03151 10.7402 6.78399 11.3331 6.17428L11.3331 6.17427C11.9009 5.5902 12.25 4.78959 12.25 3.91667C12.25 2.16418 10.8085 0.75 9.03846 0.75C8.00471 0.75 7.08689 1.23324 6.5 1.98177C5.91311 1.23324 4.99529 0.75 3.96154 0.75C2.19146 0.75 0.75 2.16418 0.75 3.91667C0.75 4.78955 1.09882 5.59019 1.66694 6.17431C2.25981 6.78402 3.42099 8.03153 4.43616 9.12905C4.94326 9.6773 5.41319 10.1873 5.75634 10.5603C5.92791 10.7467 6.06779 10.8989 6.16476 11.0045L6.27664 11.1264L6.30582 11.1582L6.31327 11.1663L6.31514 11.1683L6.31561 11.1688L6.31573 11.169L6.5 11ZM6.5 11L6.68423 11.169L6.5 11.3698L6.31577 11.169L6.5 11Z" fill="#0126A8" stroke="#0126A8" stroke-width="0.5"/>
</svg>
