<svg width="23" height="21" viewBox="0 0 23 21" fill="none" xmlns="http://www.w3.org/2000/svg">
<mask id="path-1-outside-1_161_1137" maskUnits="userSpaceOnUse" x="0" y="-0.5" width="23" height="22" fill="black">
<rect fill="white" y="-0.5" width="23" height="22"/>
<path d="M19.3749 20.3552H13.25V14.6678H9.75004V20.3552H3.62513V8.30936C3.62513 8.19333 3.67122 8.08205 3.75327 8C3.83531 7.91796 3.94659 7.87187 4.06262 7.87187C4.17865 7.87187 4.28993 7.91796 4.37198 8C4.45402 8.08205 4.50012 8.19333 4.50012 8.30936L4.50012 19.4802H8.87505V13.7928H14.125V19.4802H18.4999L18.4998 8.30936C18.4998 8.19333 18.5459 8.08205 18.628 8C18.71 7.91796 18.8213 7.87187 18.9373 7.87187C19.0534 7.87187 19.1647 7.91796 19.2467 8C19.3287 8.08205 19.3748 8.19333 19.3748 8.30936L19.3749 20.3552Z"/>
<path d="M21.5624 11.1678C21.4498 11.168 21.3415 11.1246 21.2601 11.0466L11.5001 1.71098L1.74006 11.0466C1.65623 11.1269 1.54396 11.1705 1.42794 11.168C1.31193 11.1654 1.20168 11.1169 1.12144 11.0331C1.04121 10.9493 0.997562 10.837 1.00011 10.721C1.00265 10.605 1.05117 10.4947 1.13501 10.4145L11.5001 0.5L21.8647 10.414C21.9279 10.4744 21.9716 10.5523 21.9901 10.6377C22.0086 10.7231 22.0011 10.8121 21.9686 10.8932C21.936 10.9743 21.88 11.0438 21.8076 11.0927C21.7352 11.1417 21.6498 11.1678 21.5624 11.1678Z"/>
</mask>
<path d="M19.3749 20.3552H13.25V14.6678H9.75004V20.3552H3.62513V8.30936C3.62513 8.19333 3.67122 8.08205 3.75327 8C3.83531 7.91796 3.94659 7.87187 4.06262 7.87187C4.17865 7.87187 4.28993 7.91796 4.37198 8C4.45402 8.08205 4.50012 8.19333 4.50012 8.30936L4.50012 19.4802H8.87505V13.7928H14.125V19.4802H18.4999L18.4998 8.30936C18.4998 8.19333 18.5459 8.08205 18.628 8C18.71 7.91796 18.8213 7.87187 18.9373 7.87187C19.0534 7.87187 19.1647 7.91796 19.2467 8C19.3287 8.08205 19.3748 8.19333 19.3748 8.30936L19.3749 20.3552Z" fill="black" fill-opacity="0.88"/>
<path d="M21.5624 11.1678C21.4498 11.168 21.3415 11.1246 21.2601 11.0466L11.5001 1.71098L1.74006 11.0466C1.65623 11.1269 1.54396 11.1705 1.42794 11.168C1.31193 11.1654 1.20168 11.1169 1.12144 11.0331C1.04121 10.9493 0.997562 10.837 1.00011 10.721C1.00265 10.605 1.05117 10.4947 1.13501 10.4145L11.5001 0.5L21.8647 10.414C21.9279 10.4744 21.9716 10.5523 21.9901 10.6377C22.0086 10.7231 22.0011 10.8121 21.9686 10.8932C21.936 10.9743 21.88 11.0438 21.8076 11.0927C21.7352 11.1417 21.6498 11.1678 21.5624 11.1678Z" fill="black" fill-opacity="0.88"/>
<path d="M19.3749 20.3552H13.25V14.6678H9.75004V20.3552H3.62513V8.30936C3.62513 8.19333 3.67122 8.08205 3.75327 8C3.83531 7.91796 3.94659 7.87187 4.06262 7.87187C4.17865 7.87187 4.28993 7.91796 4.37198 8C4.45402 8.08205 4.50012 8.19333 4.50012 8.30936L4.50012 19.4802H8.87505V13.7928H14.125V19.4802H18.4999L18.4998 8.30936C18.4998 8.19333 18.5459 8.08205 18.628 8C18.71 7.91796 18.8213 7.87187 18.9373 7.87187C19.0534 7.87187 19.1647 7.91796 19.2467 8C19.3287 8.08205 19.3748 8.19333 19.3748 8.30936L19.3749 20.3552Z" stroke="black" stroke-width="0.6" mask="url(#path-1-outside-1_161_1137)"/>
<path d="M21.5624 11.1678C21.4498 11.168 21.3415 11.1246 21.2601 11.0466L11.5001 1.71098L1.74006 11.0466C1.65623 11.1269 1.54396 11.1705 1.42794 11.168C1.31193 11.1654 1.20168 11.1169 1.12144 11.0331C1.04121 10.9493 0.997562 10.837 1.00011 10.721C1.00265 10.605 1.05117 10.4947 1.13501 10.4145L11.5001 0.5L21.8647 10.414C21.9279 10.4744 21.9716 10.5523 21.9901 10.6377C22.0086 10.7231 22.0011 10.8121 21.9686 10.8932C21.936 10.9743 21.88 11.0438 21.8076 11.0927C21.7352 11.1417 21.6498 11.1678 21.5624 11.1678Z" stroke="black" stroke-width="0.6" mask="url(#path-1-outside-1_161_1137)"/>
</svg>
