<svg width="26" height="25" viewBox="0 0 26 25" fill="none" xmlns="http://www.w3.org/2000/svg">
<path d="M9.09376 23.0609C8.97228 23.0606 8.8525 23.0323 8.74376 22.9781L2.49376 19.8531C2.36416 19.7882 2.25518 19.6885 2.17902 19.5651C2.10286 19.4418 2.06252 19.2997 2.06251 19.1547V5.09219C2.06178 4.95885 2.09533 4.82757 2.15993 4.71092C2.22453 4.59428 2.31802 4.4962 2.43143 4.42608C2.54485 4.35596 2.67437 4.31616 2.80759 4.3105C2.94081 4.30484 3.07325 4.33351 3.1922 4.39375L9.4422 7.51875C9.70783 7.65 9.87501 7.92031 9.87501 8.21719V22.2797C9.87378 22.4865 9.79108 22.6845 9.64483 22.8308C9.49858 22.977 9.30058 23.0597 9.09376 23.0609ZM3.62501 18.6719L8.31251 21.0156V8.69844L3.62501 6.35469V18.6719ZM23.1563 23.0609C23.0348 23.0606 22.915 23.0323 22.8063 22.9781L16.5563 19.8531C16.4267 19.7882 16.3177 19.6885 16.2415 19.5651C16.1654 19.4418 16.125 19.2997 16.125 19.1547V5.09219C16.1243 4.95885 16.1578 4.82757 16.2224 4.71092C16.287 4.59428 16.3805 4.4962 16.4939 4.42608C16.6073 4.35596 16.7369 4.31616 16.8701 4.3105C17.0033 4.30484 17.1357 4.33351 17.2547 4.39375L23.5047 7.51875C23.7703 7.65 23.9375 7.92031 23.9375 8.21719V22.2797C23.9363 22.4865 23.8536 22.6845 23.7073 22.8308C23.5611 22.977 23.3631 23.0597 23.1563 23.0609ZM17.6875 18.6719L22.375 21.0156V8.69844L17.6875 6.35469V18.6719Z" fill="black"/>
<path d="M13 12.9312C12.7927 12.9313 12.5938 12.8493 12.4469 12.7031L9.68592 9.94062C9.54361 9.79328 9.46486 9.59593 9.46664 9.39109C9.46842 9.18625 9.55059 8.9903 9.69544 8.84545C9.84029 8.7006 10.0362 8.61844 10.2411 8.61666C10.4459 8.61488 10.6433 8.69363 10.7906 8.83594L13 11.0453L15.2094 8.83594C15.3567 8.69363 15.554 8.61488 15.7589 8.61666C15.9637 8.61844 16.1597 8.7006 16.3045 8.84545C16.4494 8.9903 16.5315 9.18625 16.5333 9.39109C16.5351 9.59593 16.4564 9.79328 16.314 9.94062L13.5531 12.7031C13.4805 12.7758 13.3943 12.8333 13.2993 12.8725C13.2044 12.9116 13.1027 12.9316 13 12.9312Z" fill="black"/>
<path d="M15.7625 10.1703C15.6081 10.1703 15.4572 10.1245 15.3288 10.0387C15.2004 9.953 15.1003 9.83113 15.0411 9.68852C14.9819 9.54592 14.9663 9.38897 14.9963 9.2375C15.0262 9.08604 15.1004 8.94685 15.2094 8.8375C15.8 8.24531 16.125 7.46094 16.125 6.62656C16.125 5.79219 15.8 5.00781 15.2094 4.41719C14.0281 3.23594 11.9719 3.23594 10.7906 4.41719C10.2 5.00781 9.87502 5.79219 9.87502 6.62656C9.87502 7.46094 10.2 8.24531 10.7906 8.83594C10.933 8.98328 11.0117 9.18063 11.0099 9.38547C11.0081 9.59031 10.926 9.78626 10.7811 9.93111C10.6363 10.076 10.4403 10.1581 10.2355 10.1599C10.0306 10.1617 9.8333 10.0829 9.68596 9.94062C9.24912 9.50659 8.90278 8.99016 8.66702 8.42127C8.43126 7.85239 8.31076 7.24236 8.31252 6.62656C8.31252 5.37344 8.80002 4.19844 9.68596 3.3125C11.4563 1.54219 14.5438 1.54219 16.3141 3.3125C17.2 4.19844 17.6875 5.37344 17.6875 6.62656C17.6875 7.87812 17.2 9.05625 16.3141 9.94062C16.2419 10.0134 16.1559 10.0712 16.0613 10.1106C15.9666 10.1501 15.8651 10.1703 15.7625 10.1703Z" fill="black"/>
<path d="M16.9063 7.40781C16.6991 7.40781 16.5003 7.3255 16.3538 7.17899C16.2073 7.03248 16.125 6.83376 16.125 6.62656C16.125 6.24063 16.0516 5.85781 15.9063 5.4875C15.8308 5.29579 15.8343 5.08202 15.916 4.89289C15.9977 4.70376 16.1509 4.55465 16.3422 4.47813L16.6156 4.36875C16.734 4.32049 16.8625 4.30214 16.9896 4.31532C17.1168 4.3285 17.2387 4.37281 17.3447 4.44433C17.4507 4.51585 17.5374 4.61237 17.5972 4.72537C17.6569 4.83836 17.688 4.96435 17.6875 5.09219V6.62656C17.6875 6.83376 17.6052 7.03248 17.4587 7.17899C17.3122 7.3255 17.1135 7.40781 16.9063 7.40781Z" fill="black"/>
<path d="M9.09375 23.0609C8.88668 23.0605 8.6882 22.9781 8.54178 22.8317C8.39536 22.6852 8.31291 22.4868 8.3125 22.2797V8.21719C8.31241 8.06135 8.35893 7.90904 8.44608 7.77985C8.53323 7.65065 8.65703 7.55047 8.80156 7.49219L9.09063 7.37656C9.28214 7.29975 9.49626 7.30183 9.68625 7.38233C9.87624 7.46283 10.0267 7.61523 10.1047 7.80625C10.2625 8.19219 10.4938 8.53906 10.7891 8.83594L13 11.0453L15.2094 8.83594C15.8 8.24531 16.125 7.46094 16.125 6.62656C16.125 6.41936 16.2073 6.22065 16.3538 6.07414C16.5003 5.92762 16.699 5.84531 16.9062 5.84531C17.1135 5.84531 17.3122 5.92762 17.4587 6.07414C17.6052 6.22065 17.6875 6.41936 17.6875 6.62656V19.1547C17.6875 19.3107 17.6407 19.4631 17.5533 19.5924C17.4658 19.7216 17.3417 19.8216 17.1969 19.8797L9.38437 23.0047C9.29197 23.0418 9.19332 23.0609 9.09375 23.0609ZM9.875 10.1297V21.125L16.125 18.6234V10.1297L13.5531 12.7031C13.4066 12.8496 13.2079 12.9319 13.0008 12.9319C12.7936 12.9319 12.5949 12.8496 12.4484 12.7031L9.875 10.1297Z" fill="black"/>
<path d="M13 7.32344C13.5393 7.32344 13.9766 6.88622 13.9766 6.34688C13.9766 5.80754 13.5393 5.37032 13 5.37032C12.4607 5.37032 12.0234 5.80754 12.0234 6.34688C12.0234 6.88622 12.4607 7.32344 13 7.32344Z" fill="black"/>
</svg>
