<svg width="19" height="19" viewBox="0 0 19 19" fill="none" xmlns="http://www.w3.org/2000/svg">
<path d="M9.41047 0.860586L9.41047 0.86057L9.4087 0.860162C9.37431 0.852226 9.34157 0.850001 9.31022 0.850001H2.85021C2.58599 0.850001 2.37021 1.06577 2.37021 1.33V16.15C2.37021 16.4142 2.58599 16.63 2.85021 16.63H10.215C10.8519 17.5473 11.9108 18.15 13.1102 18.15C15.0502 18.15 16.6302 16.57 16.6302 14.63C16.6302 12.9854 15.4954 11.6044 13.9702 11.2186V5.51C13.9702 5.47865 13.968 5.4459 13.9601 5.41151L13.9601 5.41151L13.9596 5.40974C13.9551 5.39169 13.949 5.37302 13.9431 5.35694L13.9387 5.33944L13.9366 5.33102L13.9331 5.32309C13.9252 5.30531 13.9146 5.2869 13.9074 5.27437C13.9055 5.27103 13.9039 5.26812 13.9025 5.26573L13.9028 5.26558L13.8995 5.2606L13.8982 5.25811C13.897 5.25595 13.8946 5.25166 13.8914 5.24681C13.89 5.24473 13.8883 5.24236 13.8864 5.23982C13.8699 5.21478 13.8512 5.19184 13.8288 5.16949L9.65073 0.99139C9.62838 0.969042 9.60544 0.950321 9.5804 0.933854C9.57786 0.931896 9.5755 0.930234 9.57341 0.928843C9.56856 0.92561 9.56427 0.923237 9.56211 0.922061L9.5615 0.921729L9.56157 0.921622L9.55448 0.917685C9.5521 0.916361 9.54918 0.914685 9.54584 0.91277C9.53331 0.905578 9.5149 0.89502 9.49713 0.88712L9.48919 0.883593L9.48077 0.881487L9.46328 0.877114C9.4472 0.87124 9.42852 0.8651 9.41047 0.860586ZM9.55857 0.92015C9.55856 0.920146 9.55856 0.920147 9.55857 0.920154L9.55857 0.92015ZM5.51022 10.35C5.24599 10.35 5.03022 10.5658 5.03022 10.83C5.03022 11.0942 5.24599 11.31 5.51022 11.31H10.8302C11.0944 11.31 11.3102 11.0942 11.3102 10.83C11.3102 10.5658 11.0944 10.35 10.8302 10.35H5.51022ZM5.51022 9.41H10.8302C11.0944 9.41 11.3102 9.19423 11.3102 8.93C11.3102 8.66577 11.0944 8.45 10.8302 8.45H5.51022C5.24599 8.45 5.03022 8.66577 5.03022 8.93C5.03022 9.19423 5.24599 9.41 5.51022 9.41ZM9.79022 2.48912L12.3311 5.03H9.79022V2.48912ZM5.51022 12.25C5.24599 12.25 5.03022 12.4658 5.03022 12.73C5.03022 12.9942 5.24599 13.21 5.51022 13.21H9.89363C9.70094 13.6438 9.59022 14.1233 9.59022 14.63C9.59022 14.9934 9.64782 15.3415 9.75079 15.67H3.33021V1.81H8.83022V5.51C8.83022 5.77423 9.04599 5.99 9.31022 5.99H13.0102V11.1114C12.0276 11.1392 11.1464 11.5748 10.5238 12.25H5.51022ZM13.1102 12.07C14.5218 12.07 15.6702 13.2184 15.6702 14.63C15.6702 16.0416 14.5218 17.19 13.1102 17.19C11.6986 17.19 10.5502 16.0416 10.5502 14.63C10.5502 13.2184 11.6986 12.07 13.1102 12.07ZM14.2502 14.15H13.5902V13.49C13.5902 13.2258 13.3744 13.01 13.1102 13.01C12.846 13.01 12.6302 13.2258 12.6302 13.49V14.15H11.9702C11.706 14.15 11.4902 14.3658 11.4902 14.63C11.4902 14.8942 11.706 15.11 11.9702 15.11H12.6302V15.77C12.6302 16.0342 12.846 16.25 13.1102 16.25C13.3744 16.25 13.5902 16.0342 13.5902 15.77V15.11H14.2502C14.5144 15.11 14.7302 14.8942 14.7302 14.63C14.7302 14.3658 14.5144 14.15 14.2502 14.15Z" fill="black" stroke="black" stroke-width="0.2"/>
</svg>
