<svg width="88" height="89" viewBox="0 0 88 89" fill="none" xmlns="http://www.w3.org/2000/svg">
<g clip-path="url(#clip0_13_503)">
<path d="M44 0.5C19.7153 0.5 0 20.2153 0 44.5C0 68.7847 19.7153 88.5 44 88.5C68.2847 88.5 88 68.7847 88 44.5C88 20.2153 68.2847 0.5 44 0.5ZM44 3.16406C66.8436 3.16406 85.3359 21.6563 85.3359 44.5C85.3359 67.3434 66.8436 85.8359 44 85.8359C21.1564 85.8359 2.66406 67.3434 2.66406 44.5C2.66406 21.6563 21.1564 3.16406 44 3.16406ZM61.7891 25.5938C61.5259 25.6871 61.3 25.8631 61.1451 26.0954C60.9902 26.3278 60.9146 26.604 60.9297 26.8828V30.75H57.0625C57.0053 30.7462 56.9479 30.7462 56.8906 30.75C56.5616 30.7893 56.2602 30.9534 56.0485 31.2084C55.8369 31.4634 55.7312 31.79 55.7533 32.1206C55.7753 32.4513 55.9234 32.7609 56.167 32.9855C56.4106 33.2102 56.7311 33.3328 57.0625 33.3281H60.9297V37.1953C60.9145 37.3738 60.9366 37.5535 60.9945 37.7229C61.0524 37.8924 61.1449 38.0481 61.2661 38.18C61.3873 38.3119 61.5345 38.4171 61.6985 38.4892C61.8625 38.5612 62.0396 38.5984 62.2188 38.5984C62.3979 38.5984 62.575 38.5612 62.739 38.4892C62.903 38.4171 63.0502 38.3119 63.1714 38.18C63.2926 38.0481 63.3851 37.8924 63.443 37.7229C63.5009 37.5535 63.523 37.3738 63.5078 37.1953V33.3281H67.375C67.5535 33.3433 67.7331 33.3212 67.9026 33.2633C68.0721 33.2054 68.2278 33.1129 68.3596 32.9917C68.4915 32.8706 68.5968 32.7233 68.6689 32.5593C68.7409 32.3953 68.7781 32.2182 68.7781 32.0391C68.7781 31.86 68.7409 31.6828 68.6689 31.5188C68.5968 31.3548 68.4915 31.2076 68.3596 31.0864C68.2278 30.9652 68.0721 30.8727 67.9026 30.8148C67.7331 30.7569 67.5535 30.7349 67.375 30.75H63.5078V26.8828C63.5066 26.5413 63.3704 26.2141 63.1289 25.9727C62.8874 25.7312 62.5603 25.595 62.2188 25.5938C62.1047 25.5785 61.9891 25.5785 61.875 25.5938C61.8464 25.5928 61.8177 25.5928 61.7891 25.5938ZM42.7969 30.75C37.8113 30.75 33.7735 34.8739 33.7734 39.8594C33.7735 44.8451 37.8113 48.8828 42.7969 48.8828C47.7824 48.8828 51.9062 44.8451 51.9062 39.8594C51.9062 34.8739 47.7824 30.75 42.7969 30.75ZM42.7969 33.3281C46.3843 33.3281 49.3281 36.272 49.3281 39.8594C49.3281 43.447 46.3843 46.3047 42.7969 46.3047C39.2095 46.3047 36.3516 43.447 36.3516 39.8594C36.3516 36.272 39.2095 33.3281 42.7969 33.3281ZM42.7969 51.4609C32.8932 51.4609 24.75 58.3121 24.75 67.0156H27.3281C27.3281 59.9534 34.0681 54.0391 42.7969 54.0391C51.5257 54.0391 58.3516 59.9534 58.3516 67.0156H60.9297C60.9297 58.3121 52.7006 51.4609 42.7969 51.4609Z" fill="#0F0E17"/>
</g>
<defs>
<clipPath id="clip0_13_503">
<rect width="88" height="88" fill="white" transform="translate(0 0.5)"/>
</clipPath>
</defs>
</svg>
