<svg width="33" height="45" viewBox="0 0 33 45" fill="none" xmlns="http://www.w3.org/2000/svg">
<path d="M30.762 44.0996L30.7696 44.099C31.4184 44.05 31.7577 43.772 31.9303 43.4928C32.0151 43.3556 32.0573 43.222 32.0785 43.1226C32.0891 43.0728 32.0944 43.0313 32.0972 43.0016C32.0985 42.9867 32.0992 42.9748 32.0996 42.9663L32.0999 42.9561L32.1 42.9529L32.1 42.9519L32.1 42.9515V42.9514C32.1 42.9513 32.1 42.9512 32 42.9512H32.1V29.5583V13.5854C32.1 13.5073 32.0945 13.4312 32.0768 13.3534L32.0769 13.3534L32.0764 13.3517C32.0654 13.3067 32.0494 13.2579 32.0338 13.2152L32.0196 13.1577L32.0175 13.1493L32.0141 13.1415C31.9967 13.1018 31.9751 13.0635 31.9558 13.0293C31.9495 13.0181 31.9435 13.0074 31.9379 12.9972L31.9382 12.9971L31.9338 12.9903C31.9318 12.9873 31.9313 12.986 31.9253 12.975C31.922 12.9687 31.9153 12.9563 31.9048 12.9434C31.8657 12.882 31.821 12.826 31.7664 12.7705L20.4049 1.23921L20.3338 1.30921L20.4049 1.23921C20.3503 1.18379 20.295 1.13846 20.2345 1.0987C20.2217 1.08795 20.2094 1.08115 20.2032 1.0777C20.1994 1.0756 20.1968 1.07418 20.1949 1.07313C20.1912 1.07115 20.1901 1.07052 20.1882 1.06925L20.1884 1.06897L20.1813 1.06497C20.1713 1.05935 20.1608 1.05324 20.1499 1.04687C20.1161 1.02725 20.0782 1.0052 20.039 0.987504L20.0309 0.983891L20.0224 0.98173L19.9659 0.967394C19.9238 0.951529 19.8757 0.93532 19.8313 0.924047L19.8313 0.924031L19.8295 0.923611C19.7525 0.90558 19.6772 0.9 19.6 0.9H2.03333C1.40838 0.9 0.9 1.41813 0.9 2.04878V42.9512C0.9 43.5819 1.40838 44.1 2.03333 44.1L30.762 44.0993V44.0996ZM9.26667 32.3634C8.64171 32.3634 8.13333 32.8815 8.13333 33.5122C8.13333 34.1429 8.64171 34.661 9.26667 34.661L23.7333 34.661C24.3583 34.661 24.8667 34.1429 24.8667 33.5122C24.8667 32.8815 24.3583 32.3634 23.7333 32.3634H9.26667ZM9.26667 27.1195C8.64171 27.1195 8.13333 27.6376 8.13333 28.2683C8.13333 28.8989 8.64171 29.4171 9.26667 29.4171H23.7333C24.3583 29.4171 24.8667 28.8989 24.8667 28.2683C24.8667 27.6376 24.3583 27.1195 23.7333 27.1195H9.26667ZM9.26667 24.1732H23.7333C24.3583 24.1732 24.8667 23.655 24.8667 23.0244C24.8667 22.3937 24.3583 21.8756 23.7333 21.8756H9.26667C8.64171 21.8756 8.13333 22.3937 8.13333 23.0244C8.13333 23.655 8.64171 24.1732 9.26667 24.1732ZM20.7333 4.82556L28.2323 12.4366H20.7333V4.82556ZM29.8333 14.7341V29.3171V41.8024H3.16667V3.19756H18.4667V13.5854C18.4667 14.216 18.975 14.7341 19.6 14.7341H29.8333Z" fill="black" stroke="black" stroke-width="0.2"/>
</svg>
