<svg width="48" height="44" viewBox="0 0 48 44" fill="none" xmlns="http://www.w3.org/2000/svg">
<path d="M24 42.4286C24.1864 42.5952 24.1864 42.5952 24.1865 42.5951L24.1869 42.5946L24.1886 42.5927L24.1953 42.5853L24.2217 42.5557L24.3252 42.44L24.722 41.9967C25.066 41.6126 25.562 41.059 26.1704 40.3807C27.3873 39.0241 29.0538 37.1689 30.8522 35.1745C34.45 31.1847 38.5728 26.6413 40.6814 24.4169L40.5 24.2449L40.6814 24.4169C42.5829 22.4107 43.75 19.6629 43.75 16.6684C43.75 10.6745 38.9395 5.81122 33 5.81122C29.2255 5.81122 25.9166 7.78202 24 10.7501C22.0834 7.78202 18.7745 5.81122 15 5.81122C9.06054 5.81122 4.25 10.6745 4.25 16.6684C4.25 19.6629 5.41631 22.4107 7.31859 24.4169C9.42727 26.6413 13.55 31.1847 17.1478 35.1745C18.9462 37.1689 20.6127 39.0241 21.8296 40.3807C22.438 41.059 22.934 41.6126 23.278 41.9967L23.6748 42.44L23.7783 42.5557L23.8047 42.5853L23.8114 42.5927L23.8131 42.5946L23.8135 42.5951C23.8136 42.5952 23.8136 42.5952 24 42.4286ZM24 42.4286L23.8136 42.5952L24 42.8036L24.1864 42.5952L24 42.4286ZM24 39.7954C20.7229 36.1394 12.1409 26.5862 8.76442 23.025C7.14368 21.3156 6.24206 19.0372 6.25 16.6692V16.6684C6.25 11.7906 10.1777 7.82652 15 7.82652C18.0933 7.82652 20.8954 9.43425 22.4988 12.1327L23.7851 14.2973L24 14.659L24.2149 14.2973L25.5012 12.1327C27.1046 9.43425 29.9067 7.82652 33 7.82652C37.8223 7.82652 41.75 11.7906 41.75 16.6684C41.75 19.0578 40.8567 21.3144 39.2356 23.025C35.8591 26.5862 27.2771 36.1394 24 39.7954Z" fill="black" stroke="black" stroke-width="0.5"/>
</svg>
